# xmcd
#
# Track frame offsets:
#	150
#	35028
#	69982
#	92835
#	118879
#	151131
#	180008
#
# Disc length: 2800 seconds
#
# Revision: 0
# Processed by: cddbd v1.5.2PL0 Copyright (c) Steve Scherf et al.
# Submitted via: dBpowerAMP V4.0
#
DISCID=500aee07
DTITLE=Samba Mapangala and Orchestra Virunga - Song and Dance
DYEAR=2006
DGENRE=African
TTITLE0=Adija
TTITLE1=Kaa Chonjo
TTITLE2=Tafuta Kazi
TTITLE3=Kwa Nini
TTITLE4=Nyama Choma
TTITLE5=Pangeni Uzazi
TTITLE6=Siku Ya Mwisho
EXTD=
EXTT0=
EXTT1=
EXTT2=
EXTT3=
EXTT4=
EXTT5=
EXTT6=
PLAYORDER=
